REM GENRE "Dungeon Synth, Dark Ambient"
REM DATE 2020
REM DISCID C80BA611
REM COMMENT "ExactAudioCopy v1.1"
PERFORMER "Burzum"
TITLE "Thulean Mysteries CD1 (BYE013CD)"
FILE "Burzum - Thulean Mysteries CD1 (BYE013CD).flac" WAVE
  TRACK 01 AUDIO
    TITLE "The Sacred Well"
    PERFORMER "Burzum"
    INDEX 01 00:00:00
  TRACK 02 AUDIO
    TITLE "The Loss Of A Hero"
    PERFORMER "Burzum"
    INDEX 01 02:56:51
  TRACK 03 AUDIO
    TITLE "ForeBears"
    PERFORMER "Burzum"
    INDEX 01 03:49:70
  TRACK 04 AUDIO
    TITLE "A Thulean Perspective"
    PERFORMER "Burzum"
    INDEX 01 07:53:03
  TRACK 05 AUDIO
    TITLE "Gathering Of Herbs"
    PERFORMER "Burzum"
    INDEX 01 11:54:08
  TRACK 06 AUDIO
    TITLE "Heill Auk S.ll"
    PERFORMER "Burzum"
    INDEX 01 13:07:30
  TRACK 07 AUDIO
    TITLE "Jotunnheimr"
    PERFORMER "Burzum"
    INDEX 01 16:44:08
  TRACK 08 AUDIO
    TITLE "Spell-Lake Forest"
    PERFORMER "Burzum"
    INDEX 01 18:21:74
  TRACK 09 AUDIO
    TITLE "The Ettin Stone Heart"
    PERFORMER "Burzum"
    INDEX 01 19:28:07
  TRACK 10 AUDIO
    TITLE "The Great Sleep"
    PERFORMER "Burzum"
    INDEX 01 20:42:70
  TRACK 11 AUDIO
    TITLE "The Land Of Thule"
    PERFORMER "Burzum"
    INDEX 01 22:10:64
  TRACK 12 AUDIO
    TITLE "The Lord Of The Dwarves"
    PERFORMER "Burzum"
    INDEX 01 24:23:73
  TRACK 13 AUDIO
    TITLE "A Forgotten Realm"
    PERFORMER "Burzum"
    INDEX 01 29:38:12
  TRACK 14 AUDIO
    TITLE "Heill O.inn, Sire"
    PERFORMER "Burzum"
    INDEX 01 37:02:16
  TRACK 15 AUDIO
    TITLE "The Ruins Of Dwarfmount"
    PERFORMER "Burzum"
    INDEX 01 38:19:43
  TRACK 16 AUDIO
    TITLE "The Road To Hel"
    PERFORMER "Burzum"
    INDEX 01 39:49:20
  TRACK 17 AUDIO
    TITLE "Thulean Sorcery"
    PERFORMER "Burzum"
    INDEX 01 47:31:71
